<svg width="179" height="44" viewBox="0 0 179 44" fill="none" xmlns="http://www.w3.org/2000/svg">
<path d="M2.27557 35V8.81818H19.9176V13.3821H7.81108V19.6207H19.0099V24.1847H7.81108V30.4361H19.9688V35H2.27557ZM25.3985 8.81818H32.2252L39.4355 26.4091H39.7423L46.9525 8.81818H53.7792V35H48.4099V17.9588H48.1926L41.417 34.8722H37.7608L30.9852 17.8949H30.7679V35H25.3985V8.81818ZM59.4199 35V8.81818H69.7495C71.7353 8.81818 73.427 9.19744 74.8248 9.95597C76.2225 10.706 77.2878 11.75 78.0208 13.0881C78.7623 14.4176 79.133 15.9517 79.133 17.6903C79.133 19.429 78.758 20.9631 78.008 22.2926C77.258 23.6222 76.1714 24.6577 74.7481 25.3991C73.3333 26.1406 71.6202 26.5114 69.6089 26.5114H63.0251V22.0753H68.714C69.7793 22.0753 70.6572 21.892 71.3475 21.5256C72.0464 21.1506 72.5663 20.6349 72.9072 19.9787C73.2566 19.3139 73.4313 18.5511 73.4313 17.6903C73.4313 16.821 73.2566 16.0625 72.9072 15.4148C72.5663 14.7585 72.0464 14.2514 71.3475 13.8935C70.6486 13.527 69.7623 13.3438 68.6884 13.3438H64.9555V35H59.4199Z" fill="#024D84"/>
<path d="M114.276 35V8.81818H119.811V30.4361H131.036V35H114.276ZM135.781 35V8.81818H141.317V30.4361H152.541V35H135.781ZM171.49 16.348C171.388 15.3168 170.949 14.5156 170.173 13.9446C169.398 13.3736 168.345 13.0881 167.016 13.0881C166.112 13.0881 165.35 13.2159 164.727 13.4716C164.105 13.7187 163.628 14.0639 163.296 14.5071C162.972 14.9503 162.81 15.4531 162.81 16.0156C162.793 16.4844 162.891 16.8935 163.104 17.2429C163.325 17.5923 163.628 17.8949 164.012 18.1506C164.395 18.3977 164.838 18.6151 165.341 18.8026C165.844 18.9815 166.381 19.1349 166.952 19.2628L169.304 19.8253C170.446 20.081 171.495 20.4219 172.449 20.848C173.404 21.2741 174.23 21.7983 174.929 22.4205C175.628 23.0426 176.169 23.7756 176.553 24.6193C176.945 25.4631 177.145 26.4304 177.154 27.5213C177.145 29.1236 176.736 30.5128 175.926 31.6889C175.125 32.8565 173.966 33.7642 172.449 34.4119C170.941 35.0511 169.121 35.3707 166.99 35.3707C164.877 35.3707 163.036 35.0469 161.468 34.3991C159.908 33.7514 158.689 32.7926 157.811 31.5227C156.942 30.2443 156.486 28.6634 156.443 26.7798H161.8C161.86 27.6577 162.111 28.3906 162.554 28.9787C163.006 29.5582 163.607 29.9972 164.357 30.2955C165.115 30.5852 165.972 30.7301 166.926 30.7301C167.864 30.7301 168.678 30.5937 169.368 30.321C170.067 30.0483 170.608 29.669 170.992 29.1832C171.375 28.6974 171.567 28.1392 171.567 27.5085C171.567 26.9205 171.392 26.4261 171.043 26.0256C170.702 25.625 170.199 25.2841 169.534 25.0028C168.878 24.7216 168.073 24.4659 167.118 24.2358L164.267 23.5199C162.06 22.983 160.317 22.1435 159.039 21.0014C157.76 19.8594 157.125 18.321 157.134 16.3864C157.125 14.8011 157.547 13.4162 158.399 12.2315C159.26 11.0469 160.441 10.1222 161.941 9.45739C163.441 8.79261 165.145 8.46023 167.054 8.46023C168.997 8.46023 170.693 8.79261 172.142 9.45739C173.6 10.1222 174.733 11.0469 175.543 12.2315C176.352 13.4162 176.77 14.7884 176.796 16.348H171.49Z" fill="#024D84"/>
<path d="M96 9C88.8207 9 83 14.8207 83 22C83 29.1793 88.8207 35 96 35C103.179 35 109 29.1793 109 22C109 14.8207 103.179 9 96 9ZM93.985 27.9987L88.0034 22.0163L90.3011 19.7185L93.9842 23.4032L101.798 15.5894L104.096 17.8871L93.985 27.9987Z" fill="#024D84"/>
</svg>
